<svg width="49" height="49" viewBox="0 0 49 49" fill="none" xmlns="http://www.w3.org/2000/svg">
<g clip-path="url(#clip0_3_1659)">
<path d="M48.5 24.5C48.5 11.2452 37.7547 0.5 24.5 0.5C11.2452 0.5 0.5 11.2452 0.5 24.5C0.5 36.479 9.2765 46.4081 20.75 48.2084V31.4375H14.6562V24.5H20.75V19.2125C20.75 13.1975 24.3331 9.875 29.8153 9.875C32.441 9.875 35.1875 10.3438 35.1875 10.3438V16.25H32.1613C29.1798 16.25 28.25 18.1001 28.25 19.9981V24.5H34.9062L33.8422 31.4375H28.25V48.2084C39.7235 46.4081 48.5 36.4792 48.5 24.5Z" fill="#1877F2"/>
<path d="M33.8422 31.4375L34.9062 24.5H28.25V19.9981C28.25 18.0999 29.1798 16.25 32.1613 16.25H35.1875V10.3438C35.1875 10.3438 32.441 9.875 29.8151 9.875C24.3331 9.875 20.75 13.1975 20.75 19.2125V24.5H14.6562V31.4375H20.75V48.2084C21.9905 48.4028 23.2443 48.5003 24.5 48.5C25.7557 48.5003 27.0095 48.4028 28.25 48.2084V31.4375H33.8422Z" fill="white"/>
</g>
<defs>
<clipPath id="clip0_3_1659">
<rect width="48" height="48" fill="white" transform="translate(0.5 0.5)"/>
</clipPath>
</defs>
</svg>
