<svg width="49" height="49" viewBox="0 0 49 49" fill="none" xmlns="http://www.w3.org/2000/svg">
<g clip-path="url(#clip0_3_1666)">
<path d="M37.25 0.5H11.75C5.5368 0.5 0.5 5.5368 0.5 11.75V37.25C0.5 43.4632 5.5368 48.5 11.75 48.5H37.25C43.4632 48.5 48.5 43.4632 48.5 37.25V11.75C48.5 5.5368 43.4632 0.5 37.25 0.5Z" fill="url(#paint0_radial_3_1666)"/>
<path d="M37.25 0.5H11.75C5.5368 0.5 0.5 5.5368 0.5 11.75V37.25C0.5 43.4632 5.5368 48.5 11.75 48.5H37.25C43.4632 48.5 48.5 43.4632 48.5 37.25V11.75C48.5 5.5368 43.4632 0.5 37.25 0.5Z" fill="url(#paint1_radial_3_1666)"/>
<path d="M24.5017 5.75C19.4096 5.75 18.7704 5.77231 16.7705 5.86325C14.7744 5.95475 13.4118 6.27069 12.2197 6.73438C10.9863 7.21325 9.94025 7.85394 8.89813 8.89644C7.85506 9.93875 7.21438 10.9848 6.734 12.2176C6.269 13.4101 5.95269 14.7732 5.86287 16.7684C5.77344 18.7685 5.75 19.4079 5.75 24.5002C5.75 29.5925 5.7725 30.2296 5.86325 32.2295C5.95513 34.2256 6.27106 35.5882 6.73438 36.7803C7.21362 38.0137 7.85431 39.0597 8.89681 40.1019C9.93875 41.1449 10.9848 41.7871 12.2172 42.266C13.4103 42.7297 14.7731 43.0456 16.7688 43.1371C18.7689 43.2281 19.4075 43.2504 24.4994 43.2504C29.5921 43.2504 30.2292 43.2281 32.2291 43.1371C34.2253 43.0456 35.5893 42.7297 36.7824 42.266C38.0152 41.7871 39.0597 41.1449 40.1015 40.1019C41.1446 39.0597 41.7851 38.0137 42.2656 36.7809C42.7265 35.5882 43.043 34.2253 43.1367 32.2299C43.2266 30.23 43.25 29.5925 43.25 24.5002C43.25 19.4079 43.2266 18.7689 43.1367 16.7688C43.043 14.7727 42.7265 13.4103 42.2656 12.2182C41.7851 10.9848 41.1446 9.93875 40.1015 8.89644C39.0586 7.85356 38.0156 7.21287 36.7812 6.73456C35.5859 6.27069 34.2226 5.95456 32.2265 5.86325C30.2264 5.77231 29.5897 5.75 24.4959 5.75H24.5017ZM22.8196 9.12894C23.3189 9.12819 23.876 9.12894 24.5017 9.12894C29.5081 9.12894 30.1014 9.14694 32.0784 9.23675C33.9065 9.32038 34.8988 9.62581 35.5597 9.8825C36.4347 10.2222 37.0586 10.6286 37.7144 11.285C38.3707 11.9412 38.7768 12.5662 39.1175 13.4412C39.3742 14.1012 39.68 15.0935 39.7633 16.9216C39.8531 18.8983 39.8726 19.4919 39.8726 24.4959C39.8726 29.4999 39.8531 30.0937 39.7633 32.0701C39.6796 33.8982 39.3742 34.8905 39.1175 35.5507C38.7778 36.4257 38.3707 37.0488 37.7144 37.7047C37.0582 38.3609 36.4351 38.7671 35.5597 39.107C34.8995 39.3648 33.9065 39.6695 32.0784 39.7531C30.1017 39.8429 29.5081 39.8624 24.5017 39.8624C19.4951 39.8624 18.9016 39.8429 16.9252 39.7531C15.0971 39.6688 14.1048 39.3633 13.4433 39.1066C12.5684 38.7667 11.9433 38.3606 11.2871 37.7043C10.6308 37.0481 10.2247 36.4246 9.884 35.5492C9.62731 34.889 9.3215 33.8967 9.23825 32.0686C9.14844 30.092 9.13044 29.4984 9.13044 24.4912C9.13044 19.484 9.14844 18.8936 9.23825 16.9169C9.32188 15.0888 9.62731 14.0966 9.884 13.4356C10.2239 12.5606 10.6308 11.9356 11.2873 11.2794C11.9437 10.6231 12.5684 10.2168 13.4435 9.87631C14.1044 9.6185 15.0971 9.31381 16.9252 9.22981C18.6549 9.15162 19.3252 9.12819 22.8196 9.12425V9.12894ZM34.5104 12.2422C33.2683 12.2422 32.2604 13.2491 32.2604 14.4914C32.2604 15.7336 33.2683 16.7414 34.5104 16.7414C35.7526 16.7414 36.7604 15.7336 36.7604 14.4914C36.7604 13.2493 35.7526 12.2414 34.5104 12.2414V12.2422ZM24.5017 14.8711C19.1842 14.8711 14.8728 19.1825 14.8728 24.5002C14.8728 29.8179 19.1842 34.1272 24.5017 34.1272C29.8194 34.1272 34.1292 29.8179 34.1292 24.5002C34.1292 19.1827 29.819 14.8711 24.5013 14.8711H24.5017ZM24.5017 18.2501C27.9534 18.2501 30.7518 21.0481 30.7518 24.5002C30.7518 27.9519 27.9534 30.7503 24.5017 30.7503C21.05 30.7503 18.2518 27.9519 18.2518 24.5002C18.2518 21.0481 21.0498 18.2501 24.5017 18.2501Z" fill="white"/>
</g>
<defs>
<radialGradient id="paint0_radial_3_1666" cx="0" cy="0" r="1" gradientUnits="userSpaceOnUse" gradientTransform="translate(13.25 52.1969) rotate(-90) scale(47.5716 44.2453)">
<stop stop-color="#FFDD55"/>
<stop offset="0.1" stop-color="#FFDD55"/>
<stop offset="0.5" stop-color="#FF543E"/>
<stop offset="1" stop-color="#C837AB"/>
</radialGradient>
<radialGradient id="paint1_radial_3_1666" cx="0" cy="0" r="1" gradientUnits="userSpaceOnUse" gradientTransform="translate(-7.54019 3.95769) rotate(78.681) scale(21.2648 87.654)">
<stop stop-color="#3771C8"/>
<stop offset="0.128" stop-color="#3771C8"/>
<stop offset="1" stop-color="#6600FF" stop-opacity="0"/>
</radialGradient>
<clipPath id="clip0_3_1666">
<rect width="48" height="48" fill="white" transform="translate(0.5 0.5)"/>
</clipPath>
</defs>
</svg>
