<svg width="49" height="49" viewBox="0 0 49 49" fill="none" xmlns="http://www.w3.org/2000/svg">
<path d="M39.9141 6.50003H9.19406C8.8506 6.49844 8.51023 6.56492 8.19261 6.69562C7.87499 6.82632 7.58642 7.01866 7.34355 7.26152C7.10069 7.50439 6.90835 7.79296 6.77765 8.11058C6.64695 8.4282 6.58047 8.76857 6.58206 9.11203V39.888C6.58206 41.28 7.74206 42.5 9.19406 42.5H39.7941C40.1377 42.5019 40.4783 42.4356 40.7961 42.305C41.114 42.1744 41.4028 41.9821 41.6459 41.7392C41.8889 41.4964 42.0815 41.2077 42.2123 40.8899C42.3431 40.5722 42.4097 40.2317 42.4081 39.888V9.05403C42.5261 7.66203 41.3641 6.50003 39.9141 6.50003ZM17.2081 37.1H11.9261V19.97H17.2101L17.2081 37.1ZM14.5381 17.59C14.1334 17.5922 13.7322 17.514 13.358 17.36C12.9837 17.2061 12.6436 16.9794 12.3576 16.6931C12.0715 16.4068 11.845 16.0667 11.6913 15.6923C11.5376 15.3179 11.4597 14.9167 11.4621 14.512C11.4621 12.83 12.8541 11.436 14.5381 11.436C16.2221 11.436 17.6181 12.83 17.6181 14.512C17.6181 16.194 16.3381 17.59 14.5381 17.59ZM37.2421 37.1H31.9581V28.796C31.9581 26.822 31.9001 24.21 29.1721 24.21C26.3841 24.21 25.9781 26.416 25.9781 28.622V37.1H20.6941V19.97H25.8621V22.35H25.9201C26.6741 20.958 28.3601 19.564 30.9721 19.564C36.3721 19.564 37.3581 23.048 37.3581 27.81V37.1H37.2421Z" fill="white"/>
</svg>
