<svg width="49" height="55" viewBox="0 0 49 55" fill="none" xmlns="http://www.w3.org/2000/svg">
<g clip-path="url(#clip0_3_1662)">
<path d="M36.0725 19.9436C39.5746 22.4285 43.865 23.8906 48.4986 23.8906V15.0402C47.6216 15.0406 46.747 14.9497 45.889 14.7691V21.7357C41.2557 21.7357 36.9659 20.2738 33.463 17.789V35.8503C33.463 44.8856 26.0838 52.2095 16.9818 52.2095C13.5856 52.2095 10.4288 51.1904 7.80664 49.4425C10.7995 52.4801 14.9733 54.3643 19.5906 54.3643C28.6934 54.3643 36.0728 47.0404 36.0728 38.0047V19.9436H36.0725ZM39.2918 11.0146C37.502 9.07378 36.3267 6.56557 36.0725 3.79258V2.6543H33.5995C34.222 6.17863 36.3455 9.1896 39.2918 11.0146ZM13.5636 42.5093C12.5636 41.208 12.023 39.6158 12.0256 37.9789C12.0256 33.8466 15.4008 30.496 19.565 30.496C20.3409 30.4955 21.1122 30.6138 21.8519 30.8466V21.7982C20.9875 21.6807 20.1153 21.6306 19.2434 21.6491V28.6918C18.5034 28.459 17.7316 28.3408 16.9553 28.3414C12.7913 28.3414 9.41633 31.6916 9.41633 35.8244C9.41633 38.7468 11.1033 41.2768 13.5636 42.5093Z" fill="#FF004F"/>
<path d="M33.4631 17.7888C36.9662 20.2736 41.2556 21.7355 45.8891 21.7355V14.7689C43.3027 14.222 41.0132 12.8806 39.2918 11.0146C36.3452 9.18941 34.2221 6.17845 33.5996 2.6543H27.1041V38.0044C27.0892 42.1255 23.7199 45.4623 19.5647 45.4623C17.1163 45.4623 14.9409 44.3039 13.5634 42.5091C11.1034 41.2768 9.41625 38.7466 9.41625 35.8246C9.41625 31.6921 12.7912 28.3415 16.9552 28.3415C17.7531 28.3415 18.522 28.4648 19.2433 28.692V21.6493C10.3011 21.8327 3.1095 29.0851 3.1095 38.0046C3.1095 42.4571 4.90031 46.4935 7.80694 49.4429C10.4291 51.1904 13.5857 52.2099 16.9821 52.2099C26.0842 52.2099 33.4633 44.8855 33.4633 35.8503L33.4631 17.7888Z" fill="black"/>
<path d="M45.8891 14.769V12.8857C43.5568 12.8891 41.2706 12.2408 39.2917 11.0149C41.0433 12.9183 43.3498 14.231 45.8891 14.7694M33.5994 2.65441C33.5401 2.31767 33.4945 1.97868 33.4629 1.63828V0.5H24.494V35.8504C24.4797 39.9712 21.1104 43.308 16.955 43.308C15.777 43.3098 14.6151 43.0363 13.5631 42.5098C14.9407 44.3042 17.1161 45.4624 19.5644 45.4624C23.7194 45.4624 27.0892 42.126 27.1038 38.0049V2.6546L33.5994 2.65441ZM19.2436 21.6494V19.6441C18.4942 19.5425 17.7386 19.4916 16.9822 19.4918C7.87906 19.4918 0.5 26.8161 0.5 35.8504C0.5 41.5147 3.40006 46.5065 7.80706 49.4428C4.90044 46.4937 3.10963 42.4571 3.10963 38.0047C3.10963 29.0854 10.301 21.8328 19.2436 21.6494Z" fill="#00F2EA"/>
</g>
<defs>
<clipPath id="clip0_3_1662">
<rect width="48" height="54" fill="white" transform="translate(0.5 0.5)"/>
</clipPath>
</defs>
</svg>
