<svg width="25" height="23" viewBox="0 0 25 23" fill="none" xmlns="http://www.w3.org/2000/svg">
<path d="M21.7753 0.905122C18.6114 3.64337 15.9346 6.25 13.484 9.65087C12.4033 11.1509 11.2014 12.9164 10.4158 14.5832C9.96725 15.4671 9.15875 16.8482 8.88313 18.1761C7.37563 16.7736 5.75638 15.1817 4.09963 13.9349C2.91875 13.0465 -0.4825 14.8577 0.902 15.8995C3.38338 17.7659 5.447 20.0905 7.8605 22.0401C8.87 22.8546 11.1073 21.0857 11.633 20.3436C13.3588 17.8986 13.5946 14.9099 14.8524 12.2429C16.7728 8.164 20.1785 4.81337 23.5411 1.90375C25.769 -0.174128 23.468 -0.557378 21.7786 0.905122" fill="#FF4F01"/>
</svg>
