<svg width="24" height="25" viewBox="0 0 24 25" fill="none" xmlns="http://www.w3.org/2000/svg">
<path d="M4.825 12.525L8.7 16.4C8.88333 16.5834 8.975 16.8167 8.975 17.1C8.975 17.3834 8.88333 17.6167 8.7 17.8C8.51666 17.9834 8.28333 18.075 8 18.075C7.71666 18.075 7.48333 17.9834 7.3 17.8L2.7 13.2C2.6 13.1 2.529 12.9917 2.487 12.875C2.445 12.7584 2.42466 12.6334 2.426 12.5C2.42733 12.3667 2.44833 12.2417 2.489 12.125C2.52966 12.0084 2.60033 11.9 2.701 11.8L7.301 7.20002C7.501 7.00002 7.73866 6.90002 8.014 6.90002C8.28933 6.90002 8.52666 7.00002 8.726 7.20002C8.92533 7.40002 9.02533 7.63769 9.026 7.91302C9.02666 8.18836 8.92666 8.42569 8.726 8.62502L4.825 12.525ZM19.175 12.475L15.3 8.60002C15.1167 8.41669 15.025 8.18336 15.025 7.90002C15.025 7.61669 15.1167 7.38336 15.3 7.20002C15.4833 7.01669 15.7167 6.92502 16 6.92502C16.2833 6.92502 16.5167 7.01669 16.7 7.20002L21.3 11.8C21.4 11.9 21.471 12.0084 21.513 12.125C21.555 12.2417 21.5757 12.3667 21.575 12.5C21.5743 12.6334 21.5537 12.7584 21.513 12.875C21.4723 12.9917 21.4013 13.1 21.3 13.2L16.7 17.8C16.5 18 16.2667 18.096 16 18.088C15.7333 18.08 15.5 17.9757 15.3 17.775C15.1 17.5744 15 17.337 15 17.063C15 16.789 15.1 16.5514 15.3 16.35L19.175 12.475Z" fill="#FF4F01"/>
</svg>
