<svg width="24" height="25" viewBox="0 0 24 25" fill="none" xmlns="http://www.w3.org/2000/svg">
<path d="M10 4.5C8.93913 4.5 7.92172 4.92143 7.17157 5.67157C6.42143 6.42172 6 7.43913 6 8.5C6 9.56087 6.42143 10.5783 7.17157 11.3284C7.92172 12.0786 8.93913 12.5 10 12.5C11.0609 12.5 12.0783 12.0786 12.8284 11.3284C13.5786 10.5783 14 9.56087 14 8.5C14 7.43913 13.5786 6.42172 12.8284 5.67157C12.0783 4.92143 11.0609 4.5 10 4.5ZM4 8.5C4 6.9087 4.63214 5.38258 5.75736 4.25736C6.88258 3.13214 8.4087 2.5 10 2.5C11.5913 2.5 13.1174 3.13214 14.2426 4.25736C15.3679 5.38258 16 6.9087 16 8.5C16 10.0913 15.3679 11.6174 14.2426 12.7426C13.1174 13.8679 11.5913 14.5 10 14.5C8.4087 14.5 6.88258 13.8679 5.75736 12.7426C4.63214 11.6174 4 10.0913 4 8.5ZM16.828 4.257C16.9209 4.16402 17.0312 4.09026 17.1526 4.03994C17.274 3.98962 17.4041 3.96371 17.5355 3.96371C17.6669 3.96371 17.797 3.98962 17.9184 4.03994C18.0398 4.09026 18.1501 4.16402 18.243 4.257C18.8003 4.81416 19.2423 5.47565 19.5439 6.20366C19.8455 6.93168 20.0007 7.71198 20.0007 8.5C20.0007 9.28802 19.8455 10.0683 19.5439 10.7963C19.2423 11.5244 18.8003 12.1858 18.243 12.743C18.1501 12.8359 18.0398 12.9096 17.9184 12.9599C17.797 13.0102 17.6669 13.0361 17.5355 13.0361C17.4041 13.0361 17.274 13.0102 17.1526 12.9599C17.0312 12.9096 16.9209 12.8359 16.828 12.743C16.7351 12.6501 16.6614 12.5398 16.6111 12.4184C16.5608 12.297 16.5349 12.1669 16.5349 12.0355C16.5349 11.9041 16.5608 11.774 16.6111 11.6526C16.6614 11.5312 16.7351 11.4209 16.828 11.328C17.5779 10.5779 17.9991 9.56066 17.9991 8.5C17.9991 7.43934 17.5779 6.42211 16.828 5.672C16.735 5.57913 16.6613 5.46884 16.6109 5.34744C16.5606 5.22604 16.5347 5.09592 16.5347 4.9645C16.5347 4.83308 16.5606 4.70296 16.6109 4.58156C16.6613 4.46016 16.735 4.34987 16.828 4.257ZM17.53 17.257C17.5945 17 17.7583 16.779 17.9856 16.6427C18.2128 16.5064 18.4849 16.4659 18.742 16.53C20.07 16.862 20.911 17.71 21.394 18.678C21.862 19.613 22 20.658 22 21.5C22 21.7652 21.8946 22.0196 21.7071 22.2071C21.5196 22.3946 21.2652 22.5 21 22.5C20.7348 22.5 20.4804 22.3946 20.2929 22.2071C20.1054 22.0196 20 21.7652 20 21.5C20 20.843 19.888 20.137 19.606 19.572C19.339 19.039 18.929 18.638 18.257 18.47C18 18.4055 17.779 18.2417 17.6427 18.0144C17.5064 17.7872 17.4659 17.5141 17.53 17.257ZM6.5 18.5C5.24 18.5 4 19.713 4 21.5C4 21.7652 3.89464 22.0196 3.70711 22.2071C3.51957 22.3946 3.26522 22.5 3 22.5C2.73478 22.5 2.48043 22.3946 2.29289 22.2071C2.10536 22.0196 2 21.7652 2 21.5C2 18.868 3.893 16.5 6.5 16.5H13.5C16.107 16.5 18 18.868 18 21.5C18 21.7652 17.8946 22.0196 17.7071 22.2071C17.5196 22.3946 17.2652 22.5 17 22.5C16.7348 22.5 16.4804 22.3946 16.2929 22.2071C16.1054 22.0196 16 21.7652 16 21.5C16 19.713 14.76 18.5 13.5 18.5H6.5Z" fill="#FF4F01"/>
</svg>
