<svg width="204" height="85" viewBox="0 0 204 85" fill="none" xmlns="http://www.w3.org/2000/svg">
<rect x="2" y="3.5" width="69" height="69" rx="10.5" fill="#333030"/>
<rect x="2" y="3.5" width="69" height="69" rx="10.5" stroke="black" stroke-width="3"/>
<g clip-path="url(#clip0_3_303)">
<path d="M29.5625 62.375C34.025 62.375 37.625 58.775 37.625 54.3125V46.25H29.5625C25.1 46.25 21.5 49.85 21.5 54.3125C21.5 58.775 25.1 62.375 29.5625 62.375Z" fill="#0ACF83"/>
<path d="M21.5 38.1875C21.5 33.725 25.1 30.125 29.5625 30.125H37.625V46.25H29.5625C25.1 46.25 21.5 42.65 21.5 38.1875Z" fill="#A259FF"/>
<path d="M21.5 22.0625C21.5 17.6 25.1 14 29.5625 14H37.625V30.125H29.5625C25.1 30.125 21.5 26.525 21.5 22.0625Z" fill="#F24E1E"/>
<path d="M37.625 14H45.6875C50.15 14 53.75 17.6 53.75 22.0625C53.75 26.525 50.15 30.125 45.6875 30.125H37.625V14Z" fill="#FF7262"/>
<path d="M53.75 38.1875C53.75 42.65 50.15 46.25 45.6875 46.25C41.225 46.25 37.625 42.65 37.625 38.1875C37.625 33.725 41.225 30.125 45.6875 30.125C50.15 30.125 53.75 33.725 53.75 38.1875Z" fill="#1ABCFE"/>
</g>
<rect x="67.6688" y="1.59611" width="69" height="69" rx="10.5" transform="rotate(3.79971 67.6688 1.59611)" fill="#333030"/>
<rect x="67.6688" y="1.59611" width="69" height="69" rx="10.5" transform="rotate(3.79971 67.6688 1.59611)" stroke="black" stroke-width="3"/>
<g clip-path="url(#clip1_3_303)">
<path d="M91.2691 62.1683C95.7218 62.464 99.5524 59.1105 99.8482 54.6578L100.382 46.613L92.3377 46.0787C87.885 45.783 84.0543 49.1365 83.7586 53.5892C83.4629 58.0419 86.8164 61.8726 91.2691 62.1683Z" fill="#0ACF83"/>
<path d="M84.8272 37.4996C85.1229 33.0469 88.9536 29.6934 93.4063 29.9891L101.451 30.5234L100.382 46.613L92.3377 46.0787C87.885 45.783 84.5315 41.9523 84.8272 37.4996Z" fill="#A259FF"/>
<path d="M85.8958 21.41C86.1915 16.9573 90.0222 13.6038 94.4749 13.8995L102.52 14.4338L101.451 30.5234L93.4063 29.9891C88.9536 29.6934 85.6001 25.8627 85.8958 21.41Z" fill="#F24E1E"/>
<path d="M102.52 14.4338L110.564 14.9681C115.017 15.2639 118.371 19.0945 118.075 23.5472C117.779 27.9999 113.949 31.3534 109.496 31.0577L101.451 30.5234L102.52 14.4338Z" fill="#FF7262"/>
<path d="M117.006 39.6368C116.711 44.0895 112.88 47.443 108.427 47.1473C103.975 46.8516 100.621 43.0209 100.917 38.5682C101.212 34.1155 105.043 30.762 109.496 31.0577C113.949 31.3535 117.302 35.1841 117.006 39.6368Z" fill="#1ABCFE"/>
</g>
<rect x="133.897" y="3.71414" width="69" height="69" rx="10.5" transform="rotate(8.90631 133.897 3.71414)" fill="#333030"/>
<rect x="133.897" y="3.71414" width="69" height="69" rx="10.5" transform="rotate(8.90631 133.897 3.71414)" stroke="black" stroke-width="3"/>
<g clip-path="url(#clip2_3_303)">
<path d="M152.012 66.1466C156.421 66.8375 160.534 63.8382 161.225 59.4295L162.474 51.4642L154.508 50.216C150.1 49.5251 145.986 52.5244 145.295 56.9331C144.604 61.3418 147.603 65.4557 152.012 66.1466Z" fill="#0ACF83"/>
<path d="M147.791 41.0024C148.482 36.5937 152.596 33.5945 157.005 34.2853L164.97 35.5336L162.474 51.4641L154.508 50.2159C150.1 49.525 147.1 45.4111 147.791 41.0024Z" fill="#A259FF"/>
<path d="M150.288 25.0717C150.979 20.663 155.093 17.6638 159.501 18.3547L167.467 19.6029L164.97 35.5335L157.005 34.2853C152.596 33.5944 149.597 29.4804 150.288 25.0717Z" fill="#F24E1E"/>
<path d="M167.467 19.603L175.432 20.8513C179.841 21.5421 182.84 25.6561 182.149 30.0648C181.458 34.4735 177.344 37.4727 172.935 36.7818L164.97 35.5336L167.467 19.603Z" fill="#FF7262"/>
<path d="M179.652 45.9952C178.962 50.4039 174.848 53.4031 170.439 52.7123C166.03 52.0214 163.031 47.9074 163.722 43.4987C164.413 39.09 168.527 36.0908 172.935 36.7817C177.344 37.4726 180.343 41.5865 179.652 45.9952Z" fill="#1ABCFE"/>
</g>
<defs>
<clipPath id="clip0_3_303">
<rect width="48" height="48" fill="white" transform="translate(12.5 14)"/>
</clipPath>
<clipPath id="clip1_3_303">
<rect width="48" height="48" fill="white" transform="translate(77.4499 12.7688) rotate(3.79971)"/>
</clipPath>
<clipPath id="clip2_3_303">
<rect width="48" height="48" fill="white" transform="translate(142.644 15.7131) rotate(8.90631)"/>
</clipPath>
</defs>
</svg>
