<svg width="49" height="48" viewBox="0 0 49 48" fill="none" xmlns="http://www.w3.org/2000/svg">
<path d="M37.58 18.0001L18.26 6.92005C17.2146 6.31637 16.028 6.00013 14.8208 6.00344C13.6136 6.00676 12.4288 6.32952 11.3867 6.93893C10.3446 7.54835 9.48231 8.42271 8.88749 9.47321C8.29267 10.5237 7.98648 11.7129 8 12.9201V35.1601C8 36.9741 8.72064 38.7139 10.0034 39.9967C11.2861 41.2794 13.0259 42.0001 14.84 42.0001C16.0409 41.998 17.2202 41.6808 18.26 41.0801L37.58 30.0001C38.6181 29.3992 39.48 28.536 40.0792 27.4969C40.6783 26.4579 40.9938 25.2795 40.9938 24.0801C40.9938 22.8806 40.6783 21.7022 40.0792 20.6632C39.48 19.6241 38.6181 18.7609 37.58 18.1601V18.0001ZM35.58 26.3801L16.26 37.6201C15.827 37.8655 15.3377 37.9945 14.84 37.9945C14.3423 37.9945 13.853 37.8655 13.42 37.6201C12.9882 37.3707 12.6296 37.0122 12.3804 36.5803C12.1311 36.1485 11.9999 35.6587 12 35.1601V12.8401C11.9999 12.3414 12.1311 11.8516 12.3804 11.4198C12.6296 10.9879 12.9882 10.6294 13.42 10.3801C13.8545 10.1376 14.3425 10.007 14.84 10.0001C15.3371 10.0103 15.8243 10.1406 16.26 10.3801L35.58 21.5401C36.012 21.7892 36.3707 22.1478 36.6201 22.5796C36.8695 23.0115 37.0008 23.5014 37.0008 24.0001C37.0008 24.4987 36.8695 24.9886 36.6201 25.4205C36.3707 25.8523 36.012 26.2109 35.58 26.4601V26.3801Z" fill="white"/>
</svg>
