<svg width="24" height="25" viewBox="0 0 24 25" fill="none" xmlns="http://www.w3.org/2000/svg">
<path d="M5.64999 10.525L7.59999 11.35C7.83332 10.8833 8.07499 10.4333 8.32499 9.99998C8.57499 9.56665 8.84999 9.13332 9.14999 8.69998L7.74999 8.42498L5.64999 10.525ZM9.19999 12.6L12.05 15.425C12.75 15.1583 13.5 14.75 14.3 14.2C15.1 13.65 15.85 13.025 16.55 12.325C17.7167 11.1583 18.6293 9.86265 19.288 8.43798C19.9467 7.01332 20.234 5.70065 20.15 4.49998C18.95 4.41665 17.6333 4.70432 16.2 5.36298C14.7667 6.02165 13.4667 6.93398 12.3 8.09998C11.6 8.79998 10.975 9.54998 10.425 10.35C9.87499 11.15 9.46665 11.9 9.19999 12.6ZM13.65 10.975C13.2667 10.5917 13.075 10.121 13.075 9.56298C13.075 9.00498 13.2667 8.53398 13.65 8.14998C14.0333 7.76598 14.5083 7.57432 15.075 7.57498C15.6417 7.57565 16.1167 7.76732 16.5 8.14998C16.8833 8.53265 17.075 9.00365 17.075 9.56298C17.075 10.1223 16.8833 10.593 16.5 10.975C16.1167 11.357 15.6417 11.5487 15.075 11.55C14.5083 11.5513 14.0333 11.3597 13.65 10.975ZM14.125 19L16.225 16.9L15.95 15.5C15.5167 15.8 15.0833 16.0707 14.65 16.312C14.2167 16.5533 13.7667 16.791 13.3 17.025L14.125 19ZM21.95 2.67498C22.2667 4.69165 22.071 6.65432 21.363 8.56298C20.655 10.4716 19.434 12.2923 17.7 14.025L18.2 16.5C18.2667 16.8333 18.25 17.1583 18.15 17.475C18.05 17.7917 17.8833 18.0666 17.65 18.3L13.45 22.5L11.35 17.575L7.07499 13.3L2.14999 11.2L6.32499 6.99998C6.55832 6.76665 6.83765 6.59998 7.16299 6.49998C7.48832 6.39998 7.81732 6.38332 8.14999 6.44998L10.625 6.94998C12.3583 5.21665 14.175 3.99165 16.075 3.27498C17.975 2.55832 19.9333 2.35832 21.95 2.67498ZM3.92499 16.475C4.50832 15.8917 5.22099 15.596 6.06299 15.588C6.90499 15.58 7.61732 15.8673 8.19999 16.45C8.78265 17.0326 9.07032 17.7453 9.06299 18.588C9.05565 19.4306 8.75965 20.143 8.17499 20.725C7.75832 21.1416 7.06265 21.5 6.08799 21.8C5.11332 22.1 3.76732 22.3666 2.04999 22.6C2.28332 20.8833 2.54999 19.5373 2.84999 18.562C3.14999 17.5866 3.50832 16.891 3.92499 16.475ZM5.34999 17.875C5.18332 18.0417 5.01665 18.346 4.84999 18.788C4.68332 19.23 4.56665 19.6756 4.49999 20.125C4.94999 20.0583 5.39599 19.946 5.83799 19.788C6.27999 19.63 6.58399 19.4673 6.74999 19.3C6.94999 19.1 7.05832 18.8583 7.07499 18.575C7.09165 18.2916 6.99999 18.05 6.79999 17.85C6.59999 17.65 6.35832 17.554 6.07499 17.562C5.79165 17.57 5.54999 17.6743 5.34999 17.875Z" fill="#FF4F01"/>
</svg>
