<svg width="216" height="41" viewBox="0 0 216 41" fill="none" xmlns="http://www.w3.org/2000/svg">
<path d="M18.0979 6.3541C18.6966 4.51148 21.3034 4.51148 21.9021 6.3541L24.0413 12.9377C24.309 13.7617 25.0769 14.3197 25.9434 14.3197H32.8658C34.8032 14.3197 35.6088 16.7989 34.0413 17.9377L28.441 22.0066C27.74 22.5159 27.4467 23.4186 27.7145 24.2426L29.8536 30.8262C30.4523 32.6689 28.3433 34.2011 26.7759 33.0623L21.1756 28.9934C20.4746 28.4841 19.5254 28.4841 18.8244 28.9934L13.2241 33.0623C11.6567 34.2011 9.5477 32.6689 10.1464 30.8262L12.2855 24.2426C12.5533 23.4186 12.26 22.5159 11.559 22.0066L5.95867 17.9377C4.39124 16.7989 5.19679 14.3197 7.13424 14.3197H14.0566C14.9231 14.3197 15.691 13.7617 15.9587 12.9377L18.0979 6.3541Z" fill="#FF4F01"/>
<path d="M62.0979 6.3541C62.6966 4.51148 65.3034 4.51148 65.9021 6.3541L68.0413 12.9377C68.309 13.7617 69.0769 14.3197 69.9434 14.3197H76.8658C78.8032 14.3197 79.6088 16.7989 78.0413 17.9377L72.441 22.0066C71.74 22.5159 71.4467 23.4186 71.7145 24.2426L73.8536 30.8262C74.4523 32.6689 72.3433 34.2011 70.7759 33.0623L65.1756 28.9934C64.4746 28.4841 63.5254 28.4841 62.8244 28.9934L57.2241 33.0623C55.6567 34.2011 53.5477 32.6689 54.1464 30.8262L56.2855 24.2426C56.5533 23.4186 56.26 22.5159 55.559 22.0066L49.9587 17.9377C48.3912 16.7989 49.1968 14.3197 51.1342 14.3197H58.0566C58.9231 14.3197 59.691 13.7617 59.9587 12.9377L62.0979 6.3541Z" fill="#FF4F01"/>
<path d="M106.098 6.3541C106.697 4.51148 109.303 4.51148 109.902 6.3541L112.041 12.9377C112.309 13.7617 113.077 14.3197 113.943 14.3197H120.866C122.803 14.3197 123.609 16.7989 122.041 17.9377L116.441 22.0066C115.74 22.5159 115.447 23.4186 115.714 24.2426L117.854 30.8262C118.452 32.6689 116.343 34.2011 114.776 33.0623L109.176 28.9934C108.475 28.4841 107.525 28.4841 106.824 28.9934L101.224 33.0623C99.6567 34.2011 97.5477 32.6689 98.1464 30.8262L100.286 24.2426C100.553 23.4186 100.26 22.5159 99.559 22.0066L93.9587 17.9377C92.3912 16.7989 93.1968 14.3197 95.1342 14.3197H102.057C102.923 14.3197 103.691 13.7617 103.959 12.9377L106.098 6.3541Z" fill="#FF4F01"/>
<path d="M150.098 6.3541C150.697 4.51148 153.303 4.51148 153.902 6.3541L156.041 12.9377C156.309 13.7617 157.077 14.3197 157.943 14.3197H164.866C166.803 14.3197 167.609 16.7989 166.041 17.9377L160.441 22.0066C159.74 22.5159 159.447 23.4186 159.714 24.2426L161.854 30.8262C162.452 32.6689 160.343 34.2011 158.776 33.0623L153.176 28.9934C152.475 28.4841 151.525 28.4841 150.824 28.9934L145.224 33.0623C143.657 34.2011 141.548 32.6689 142.146 30.8262L144.286 24.2426C144.553 23.4186 144.26 22.5159 143.559 22.0066L137.959 17.9377C136.391 16.7989 137.197 14.3197 139.134 14.3197H146.057C146.923 14.3197 147.691 13.7617 147.959 12.9377L150.098 6.3541Z" fill="#FF4F01"/>
<path d="M194.098 6.3541C194.697 4.51148 197.303 4.51148 197.902 6.3541L200.041 12.9377C200.309 13.7617 201.077 14.3197 201.943 14.3197H208.866C210.803 14.3197 211.609 16.7989 210.041 17.9377L204.441 22.0066C203.74 22.5159 203.447 23.4186 203.714 24.2426L205.854 30.8262C206.452 32.6689 204.343 34.2011 202.776 33.0623L197.176 28.9934C196.475 28.4841 195.525 28.4841 194.824 28.9934L189.224 33.0623C187.657 34.2011 185.548 32.6689 186.146 30.8262L188.286 24.2426C188.553 23.4186 188.26 22.5159 187.559 22.0066L181.959 17.9377C180.391 16.7989 181.197 14.3197 183.134 14.3197H190.057C190.923 14.3197 191.691 13.7617 191.959 12.9377L194.098 6.3541Z" fill="#FF4F01"/>
</svg>
