<svg width="16" height="10" viewBox="0 0 16 10" fill="none" xmlns="http://www.w3.org/2000/svg">
<path d="M5.77258 0.213545C5.78799 0.00164161 6.34588 -0.0831173 6.51232 0.101817C7.29521 0.968696 8.62673 2.24204 10.137 2.82189C11.6473 3.39981 14.07 3.56548 15.6604 3.60786C15.9994 3.61749 16.132 3.96617 15.8361 4.0702C14.4491 4.5595 12.4148 5.39171 11.487 6.33564C10.5593 7.27958 10.2973 8.79373 10.2295 9.78775C10.2141 9.99965 9.65312 10.0825 9.48976 9.89755C8.70687 9.03067 7.37534 7.75925 5.86196 7.17941C4.35167 6.59956 1.92903 6.43581 0.341677 6.39343C0.00263056 6.3838 -0.13299 6.0332 0.162905 5.9311C1.54991 5.44179 3.58727 4.60959 4.51503 3.66373C5.4397 2.71979 5.70477 1.20564 5.77258 0.213545Z" fill="white" fill-opacity="0.6"/>
</svg>
