<svg width="24" height="25" viewBox="0 0 24 25" fill="none" xmlns="http://www.w3.org/2000/svg">
<path d="M3.296 21.102L9.66 14.738M17.674 11.908L15.769 17.623C15.7386 17.7146 15.6865 17.7976 15.6173 17.8647C15.548 17.9319 15.4635 17.9814 15.371 18.009L3.693 21.48C3.58779 21.5113 3.47603 21.5131 3.36987 21.4852C3.26372 21.4573 3.16723 21.4009 3.09093 21.322C3.01462 21.2431 2.96141 21.1448 2.9371 21.0378C2.91278 20.9308 2.91828 20.8191 2.953 20.715L6.745 9.34102C6.77218 9.25935 6.81661 9.18449 6.87527 9.12151C6.93394 9.05853 7.00547 9.00891 7.085 8.97602L12.472 6.75802C12.5815 6.71279 12.702 6.701 12.8182 6.72413C12.9344 6.74727 13.0412 6.80429 13.125 6.88802L17.529 11.294C17.6078 11.3728 17.6631 11.472 17.6887 11.5804C17.7143 11.6889 17.7092 11.8023 17.674 11.908Z" stroke="#FF4F01" stroke-width="1.5" stroke-linecap="round" stroke-linejoin="round"/>
<path d="M17.792 11.556L20.62 8.72699C20.9949 8.35194 21.2056 7.84332 21.2056 7.31299C21.2056 6.78266 20.9949 6.27405 20.62 5.89899L18.5 3.77699C18.3143 3.59119 18.0938 3.4438 17.851 3.34324C17.6083 3.24268 17.3482 3.19092 17.0855 3.19092C16.8228 3.19092 16.5626 3.24268 16.3199 3.34324C16.0772 3.4438 15.8567 3.59119 15.671 3.77699L12.843 6.60599M11.781 12.616C11.6417 12.4767 11.4763 12.3663 11.2942 12.2909C11.1122 12.2156 10.9171 12.1768 10.7201 12.1769C10.5231 12.1769 10.3281 12.2158 10.1461 12.2912C9.96411 12.3666 9.79876 12.4772 9.65949 12.6165C9.52023 12.7558 9.40977 12.9212 9.33442 13.1032C9.25908 13.2853 9.22032 13.4803 9.22037 13.6773C9.22041 13.8743 9.25926 14.0694 9.33469 14.2514C9.41012 14.4334 9.52066 14.5987 9.65999 14.738C9.94139 15.0193 10.323 15.1772 10.7208 15.1771C11.1187 15.177 11.5002 15.0189 11.7815 14.7375C12.0628 14.4561 12.2207 14.0745 12.2206 13.6766C12.2205 13.2788 12.0624 12.8973 11.781 12.616Z" stroke="#FF4F01" stroke-width="1.5" stroke-linecap="round" stroke-linejoin="round"/>
</svg>
